<svg id="Layer_2" data-name="Layer 2" xmlns="http://www.w3.org/2000/svg" viewBox="0 0 360 360"><defs><style>.cls-1{fill:none;stroke:#003c7e;stroke-miterlimit:10;stroke-width:20px;}.cls-2{fill:#003c7e;}</style></defs><circle class="cls-1" cx="178.64" cy="66.58" r="21.97"/><path class="cls-2" d="M198.76,88.55c-.86,4.37-1.52,8.74-2.1,13.12s-1.09,8.74-1.55,13.12c-.88,8.74-1.5,17.49-2,26.23q-1.35,26.23-.75,52.48c.36,17.49,1.26,35,2.8,52.47.8,8.75,1.74,17.49,2.93,26.24s2.57,17.49,4.52,26.24h-48c2-8.75,3.29-17.49,4.51-26.24s2.13-17.49,2.94-26.24c1.54-17.49,2.44-35,2.8-52.47s.14-35-.76-52.48c-.46-8.74-1.08-17.49-2-26.23-.46-4.38-.94-8.75-1.54-13.12s-1.24-8.75-2.1-13.12Z"/><path class="cls-2" d="M115.3,108.81a64.63,64.63,0,0,0,15.47,4,103,103,0,0,0,15.47,1,115.11,115.11,0,0,0,15.47-1.12,70.19,70.19,0,0,0,15.47-3.85v30A70.22,70.22,0,0,0,161.71,135a116.76,116.76,0,0,0-15.47-1.11,103,103,0,0,0-15.47,1,64.16,64.16,0,0,0-15.47,4Z"/><polygon class="cls-2" points="82.11 191.74 109.79 239.21 106.94 234.59 201.83 298.77 178.64 322.12 90.63 251.01 88.05 248.92 87.79 246.39 82.11 191.74"/><path class="cls-2" d="M241.88,138.81a64.28,64.28,0,0,0-15.47-4,103.07,103.07,0,0,0-15.47-1A116.64,116.64,0,0,0,195.47,135,70.08,70.08,0,0,0,180,138.81v-30a70.05,70.05,0,0,0,15.47,3.85,115,115,0,0,0,15.47,1.12,103.07,103.07,0,0,0,15.47-1,64.75,64.75,0,0,0,15.47-4Z"/><polygon class="cls-2" points="275.17 191.74 269.49 246.39 269.23 248.92 266.64 251.01 178.64 322.12 155.44 298.77 250.33 234.59 247.49 239.21 275.17 191.74"/></svg>