<svg xmlns="http://www.w3.org/2000/svg" viewBox="0 0 160.19 99.43"><defs><style>.cls-1,.cls-2,.cls-3{fill:#fff;stroke:#fff;stroke-miterlimit:10;}.cls-1{stroke-width:0.87px;}.cls-2{stroke-width:0.63px;}.cls-3{stroke-width:0.8px;}.cls-4{fill:#fff;}</style></defs><g id="Layer_2" data-name="Layer 2"><g id="Layer_10" data-name="Layer 10"><path class="cls-1" d="M151.33,57.16a31.42,31.42,0,0,1-6.83-.75A31.3,31.3,0,0,0,159.76,48V12.44a12,12,0,0,0-12-12H48.69a12,12,0,0,0-12,12v57.7a12,12,0,0,0,12,12h99.07a12,12,0,0,0,12-12V56A31.65,31.65,0,0,1,151.33,57.16Z"/><path class="cls-2" d="M91.71,37.93a30.63,30.63,0,0,0-16.1,1.48,30.77,30.77,0,0,1-9.28,52.3A30.82,30.82,0,1,0,91.71,37.93Z"/><path class="cls-3" d="M13.31,13.27A27.89,27.89,0,0,0,.91,16.16,28,28,0,0,1,16.52,41.29,28,28,0,0,1,.91,66.41a28,28,0,1,0,12.4-53.14Z"/><circle class="cls-4" cx="132.78" cy="29.63" r="7.52"/></g></g></svg>